<?xml version="1.0"?>
<svg xmlns="http://www.w3.org/2000/svg" height="512px" viewBox="0 0 192 192" width="512px"><g><g id="_18-suitcase" data-name="18-suitcase"><path d="m112 136h-32a8 8 0 0 1 -8-8v-9.334l-70.621-32.1c-.479-.216-.932-.466-1.379-.721v82.155a8 8 0 0 0 8 8h176a8 8 0 0 0 8-8v-82.154c-.446.258-.9.5-1.377.719l-70.623 32.102v9.333a8 8 0 0 1 -8 8z" data-original="#000000" class="active-path" data-old_color="#000000" fill="#AAAAAA"/><path d="m80 96h32a8 8 0 0 1 8 8v5.879l67.311-30.6a8 8 0 0 0 4.689-7.279v-32a8 8 0 0 0 -8-8h-56v-24a8 8 0 0 0 -8-8h-48a8 8 0 0 0 -8 8v24h-56a8 8 0 0 0 -8 8v32a8 8 0 0 0 4.689 7.283l67.311 30.596v-5.879a8 8 0 0 1 8-8zm0-80h32v16h-32z" data-original="#000000" class="active-path" data-old_color="#000000" fill="#AAAAAA"/></g></g> </svg>
