<?xml version="1.0" encoding="UTF-8"?>
<svg xmlns="http://www.w3.org/2000/svg" xmlns:xlink="http://www.w3.org/1999/xlink" width="100pt" height="100pt" viewBox="0 0 100 100" version="1.1">
<g id="surface941092">
<path style=" stroke:current;fill-rule:nonzero;fill:current;fill-opacity:1;" d="M 74 6 L 26 6 C 14.972656 6 6 14.972656 6 26.003906 L 6 73.996094 C 6 85.027344 14.972656 94 26 94 L 74 94 C 85.027344 94 94 85.027344 94 73.996094 L 94 26 C 94 14.972656 85.027344 6 74 6 Z M 72.476562 40.960938 C 72.496094 41.433594 72.507812 41.914062 72.507812 42.398438 C 72.507812 57.074219 61.363281 74 40.980469 74 C 34.726562 74 28.898438 72.160156 24 69.007812 C 24.867188 69.113281 25.742188 69.160156 26.640625 69.160156 C 31.835938 69.160156 36.613281 67.390625 40.398438 64.410156 C 35.550781 64.320312 31.464844 61.105469 30.050781 56.695312 C 30.726562 56.824219 31.421875 56.894531 32.136719 56.894531 C 33.148438 56.894531 34.128906 56.761719 35.054688 56.503906 C 29.988281 55.480469 26.171875 50.996094 26.171875 45.613281 C 26.171875 45.5625 26.171875 45.519531 26.171875 45.472656 C 27.664062 46.304688 29.371094 46.804688 31.191406 46.863281 C 28.214844 44.867188 26.261719 41.472656 26.261719 37.617188 C 26.261719 35.582031 26.804688 33.675781 27.761719 32.03125 C 33.226562 38.753906 41.390625 43.175781 50.597656 43.636719 C 50.40625 42.824219 50.304688 41.976562 50.304688 41.109375 C 50.304688 34.972656 55.265625 30 61.386719 30 C 64.570312 30 67.449219 31.347656 69.46875 33.507812 C 71.992188 33.011719 74.367188 32.085938 76.507812 30.8125 C 75.679688 33.402344 73.921875 35.582031 71.632812 36.957031 C 73.875 36.6875 76.007812 36.09375 77.996094 35.207031 C 76.515625 37.4375 74.636719 39.394531 72.476562 40.960938 Z M 72.476562 40.960938 "/>
</g>
</svg>
