<?xml version="1.0"?>
<svg xmlns="http://www.w3.org/2000/svg" id="Capa_1" enable-background="new 0 0 512 512" height="512px" viewBox="0 0 512 512" width="512px"><g><g><g><path d="m288.901 197.006-32.901-66.666-32.901 66.666c-2.185 4.427-6.409 7.496-11.294 8.206l-73.57 10.69 53.236 51.892c3.535 3.446 5.148 8.411 4.314 13.277l-12.567 73.272 65.803-34.594c2.185-1.149 4.583-1.723 6.98-1.723s4.795.574 6.98 1.723l65.803 34.594-12.567-73.272c-.834-4.866.779-9.831 4.314-13.277l53.236-51.892-73.57-10.69c-4.887-.71-9.111-3.779-11.296-8.206z" data-original="#000000" class="active-path" data-old_color="#000000" fill="#FB5607"/><path d="m256 0c-141.159 0-256 114.841-256 256s114.841 256 256 256 256-114.841 256-256-114.841-256-256-256zm160.47 216.17-69.353 67.603 16.372 95.456c.965 5.627-1.348 11.315-5.967 14.671-2.613 1.898-5.708 2.865-8.818 2.865-2.388 0-4.784-.569-6.979-1.723l-85.725-45.069-85.725 45.068c-5.054 2.658-11.177 2.215-15.797-1.142-4.619-3.356-6.933-9.043-5.967-14.671l16.372-95.456-69.353-67.602c-4.088-3.985-5.56-9.946-3.795-15.376 1.764-5.43 6.458-9.388 12.108-10.209l95.844-13.927 42.862-86.849c2.527-5.12 7.742-8.361 13.451-8.361s10.924 3.242 13.451 8.361l42.862 86.849 95.844 13.927c5.65.821 10.344 4.779 12.108 10.209 1.765 5.43.294 11.391-3.795 15.376z" data-original="#000000" class="active-path" data-old_color="#000000" fill="#FB5607"/></g></g></g> </svg>
