<?xml version="1.0" encoding="UTF-8"?>
<svg xmlns="http://www.w3.org/2000/svg" xmlns:xlink="http://www.w3.org/1999/xlink" width="48pt" height="48pt" viewBox="0 0 48 48" version="1.1">
<g id="surface4134325">
<path style=" stroke:none;fill-rule:nonzero;fill:rgb(0%,41.568627%,71.372549%);fill-opacity:1;" d="M 24 4 C 20.492188 4 17.570312 6.621094 17.078125 10 L 10.238281 10 C 10.152344 9.984375 10.066406 9.976562 9.980469 9.976562 C 9.90625 9.980469 9.832031 9.988281 9.757812 10 L 6.5 10 C 5.960938 9.992188 5.457031 10.277344 5.183594 10.742188 C 4.910156 11.210938 4.910156 11.789062 5.183594 12.257812 C 5.457031 12.722656 5.960938 13.007812 6.5 13 L 8.636719 13 L 11.15625 39.03125 C 11.425781 41.835938 13.8125 44 16.628906 44 L 31.367188 44 C 34.1875 44 36.570312 41.835938 36.839844 39.03125 L 39.359375 13 L 41.5 13 C 42.039062 13.007812 42.542969 12.722656 42.816406 12.257812 C 43.089844 11.789062 43.089844 11.210938 42.816406 10.742188 C 42.542969 10.277344 42.039062 9.992188 41.5 10 L 38.242188 10 C 38.085938 9.972656 37.921875 9.972656 37.761719 10 L 30.917969 10 C 30.429688 6.621094 27.507812 4 24 4 Z M 24 7 C 25.878906 7 27.421875 8.269531 27.863281 10 L 20.140625 10 C 20.578125 8.269531 22.121094 7 24 7 Z M 11.648438 13 L 36.347656 13 L 33.855469 38.738281 C 33.730469 40.035156 32.667969 41 31.367188 41 L 16.628906 41 C 15.332031 41 14.265625 40.035156 14.140625 38.738281 Z M 20.476562 17.980469 C 19.648438 17.992188 18.988281 18.671875 19 19.5 L 19 34.5 C 18.992188 35.039062 19.277344 35.542969 19.742188 35.816406 C 20.210938 36.089844 20.789062 36.089844 21.257812 35.816406 C 21.722656 35.542969 22.007812 35.039062 22 34.5 L 22 19.5 C 22.003906 19.09375 21.847656 18.703125 21.558594 18.417969 C 21.273438 18.128906 20.882812 17.972656 20.476562 17.980469 Z M 27.476562 17.980469 C 26.648438 17.992188 25.988281 18.671875 26 19.5 L 26 34.5 C 25.992188 35.039062 26.277344 35.542969 26.742188 35.816406 C 27.210938 36.089844 27.789062 36.089844 28.257812 35.816406 C 28.722656 35.542969 29.007812 35.039062 29 34.5 L 29 19.5 C 29.003906 19.09375 28.847656 18.703125 28.558594 18.417969 C 28.273438 18.128906 27.882812 17.972656 27.476562 17.980469 Z M 27.476562 17.980469 "/>
</g>
</svg>
