<?xml version="1.0"?>
<svg xmlns="http://www.w3.org/2000/svg" xmlns:xlink="http://www.w3.org/1999/xlink" version="1.1" id="Capa_1" x="0px" y="0px" viewBox="0 0 29.941 29.941" style="enable-background:new 0 0 29.941 29.941;" xml:space="preserve" width="512px" height="512px"><g><g>
	<path d="M27.56,0.684H2.382C1.064,0.684,0,1.748,0,3.064v23.813c0,1.312,1.064,2.379,2.382,2.379H27.56   c1.312,0,2.381-1.066,2.381-2.379V3.064C29.94,1.748,28.871,0.684,27.56,0.684z M14.895,17.733c0.42,0.419,0.933,0.631,1.533,0.631   h4.327c0.604,0,1.117,0.216,1.545,0.644c0.434,0.429,0.646,0.944,0.646,1.544s-0.215,1.115-0.646,1.542   c-0.428,0.43-0.941,0.645-1.543,0.645H16.43c-1.802,0-3.344-0.641-4.621-1.919c-1.28-1.28-1.919-2.82-1.919-4.622v-8.73   c0-0.618,0.213-1.137,0.639-1.559c0.426-0.419,0.945-0.63,1.56-0.63c0.598,0,1.108,0.213,1.535,0.643   c0.426,0.429,0.639,0.943,0.639,1.543v2.187h6.486c0.604,0,1.119,0.215,1.549,0.644c0.437,0.428,0.648,0.942,0.648,1.543   c0,0.598-0.215,1.115-0.646,1.544c-0.428,0.428-0.941,0.643-1.545,0.643h-6.493v2.168C14.262,16.798,14.473,17.309,14.895,17.733z" data-original="#030104" class="active-path" data-old_color="#030104" fill="#FFFFFF"/>
</g></g> </svg>
