<svg version="1" xmlns="http://www.w3.org/2000/svg" width="533.333" height="533.333" viewBox="0 0 400.000000 400.000000"><path d="M157.3 26.5c-3.5 1.2-6.3 2-6.3 1.7 0-.2-.6 0-1.2.5-1 .7-10.2 4-13.8 4.8-.3.1-1.8.7-3.4 1.4-1.6.6-3.6 1.3-4.5 1.5-.9.2-2.3.6-3.1.9-8.3 3.2-14 4.9-16.4 5.1-3.9.3-6.1 3.5-4.3 6 .8 1 2.4 2 3.8 2.1 1.3.2 4.9 1.1 7.9 2.1s5.8 1.7 6.3 1.6c.4-.1.7.3.7.8 0 .6.7 1 1.6.8.9-.2 2.3.8 3.3 2.2 1.1 1.6 1.2 2.1.3 1.6-1.1-.7-1.2-.4-.5 1 .5 1.1.8 3.7.6 5.9-.2 2.2-.3 4.6-.3 5.2v11.5c0 .7.1 3.1.3 5.3.2 2.2-.1 4.6-.6 5.2-.6.8-.6 1.3 0 1.3.9 0 1 4.9.1 5.4-.2.1-3.2 1.9-6.8 4.1-7.5 4.5-9.5 6.1-16.7 13.3-11.9 11.9-21.7 31.1-23.6 46.2-.2 1.4-.5 3-.8 3.5-.7 1.4-.3 18.1.5 23 1.2 7.4 2.9 14 4.5 17.5.8 1.9 1.6 3.9 1.6 4.5 0 .5.5 1.7 1 2.5s2 3.4 3.2 5.9c8.7 16.2 29.4 33.6 46.3 38.8 3 1 5.7 2 6 2.3.3.3 1 .6 1.5.7.6 0 2.6.4 4.5.8 4.3.9 28.1 1.5 29.4.7.8-.4 3.3-.9 8.4-1.4.6-.1 1.2-.5 1.2-.9s.8-.6 1.7-.5c3.3.5 19.7-7.4 27.9-13.5 14.1-10.4 26.7-27.8 30.6-42.3.7-2.5 1.5-4.6 1.9-4.6.4 0 .5-.9.2-2s-.1-2 .3-2c2.7 0 2.1-35.9-.7-41.2-1.2-2.3-1.1-3.5.4-3.5 14.8-.9 21.1-7.6 21.2-23 0-4.6.4-8.3.9-8.3s.4-.6-.1-1.3c-.5-.6-.8-3.7-.6-6.7.3-7.1.3-8.4 0-15-.3-6.4 1.1-10 4.9-12.5 2.3-1.5 3.3-1.6 6.5-.6 7.4 2.2 7.2 1.2 7.1 47.4 0 22.7-.1 42.4-.1 43.8-.1 2.1-.8 2.8-4.3 3.9-8 2.3-14.7 9.2-16.9 17.4-1.4 5.2-1.5 33.2-.1 36.7.6 1.5.8 3 .5 3.3-.4.3-.1.6.5.6.7 0 1.2.5 1.2 1.2 0 2 5 7.8 8.9 10.2 3.5 2.2 9.6 4.2 11.5 3.8.4-.2 1.4.3 2.2.9.8.6 1.4.7 1.4.2 0-.6 1.4-1 3-1.1 4.2-.1 11.9-4 15.4-7.7 6-6.3 7-10.3 7.1-28.5.1-13.4-.2-17.4-1.7-21.4-2.2-6.1-8.5-13.5-11.5-13.6-.7 0-1.3-.5-1.3-1 0-.6-.3-.9-.7-.8-.5 0-1.7-.2-2.8-.6-1.1-.5-2.5-.9-3.2-1.1-.9-.3-1.2-11.2-1.2-44.3.1-41.8 0-44.2-1.9-47.8-2.4-4.8-4.7-6.9-9.2-8.7-9.8-3.8-21.1 2.8-22.7 13.3-.6 3.9-.4 11 .2 12 .4.6.2 1-.4 1-.6 0-.6 1.1-.1 2.9.4 1.5.4 3.4 0 4-.4.7-.4 3 0 5.2.4 2.1.4 3.9-.1 3.9-.4 0-.4 1.3.1 2.9.4 1.6.5 3.2.2 3.6-.3.3-.5 2.3-.4 4.5.5 7.2-3.9 12.5-10.9 13.3-4.8.5-7.7-.7-9-4-1.9-5.1-10.3-16.6-16.9-23.2-6.3-6.3-19.7-16.1-22-16.1-.5 0-1-.8-1.1-1.8-.1-.9-.2-3.1-.3-4.7-.1-1.7.1-3.7.4-4.5.4-.8.4-2.6 0-4s-.3-3.5.1-4.7c.5-1.2.5-2.4.1-2.7-.9-.6-.8-4.8.1-6.3.4-.7.4-1.4-.1-1.7-.8-.5-.6-8.5.3-9.4.2-.3 0-1.3-.5-2.2-.9-1.6.2-2.9 2.5-3 .3 0 2-.6 3.8-1.3 1.7-.8 4.4-1.7 5.9-2.1l2.8-.6-.1 8.3c-.1 7.7-.8 11.4-2.2 10.5-.3-.1-1.5 1-2.8 2.6-3.1 3.9-3.2 8.6-.3 13.3 1.3 2.1 2.4 3.3 2.4 2.8 0-.6.5-.3 1 .5.6 1 2.5 1.4 5.8 1.4 4.1 0 5.4-.5 7.6-2.9 2.8-3.1 4.2-8.1 3.1-11.7-.4-1.2-2.2-3.6-3.9-5.1-3.1-2.8-3.1-2.9-3.2-13.5-.1-5.9-.2-11.5-.3-12.4 0-.9-1.6-2.4-3.3-3.2-5.9-2.6-55.3-18.6-57.3-18.5-1.1 0-4.8 1.1-8.2 2.4zm29.6 12c21.3 7.2 23.4 8.1 21.1 8.9-.8.3-6 1.9-11.5 3.7-5.5 1.7-10.6 3.6-11.2 4.2-.7.5-1.3.6-1.3.3 0-.4-.6-.4-1.2.1-.7.4-1.7.8-2.3.9-.5.1-4 1.2-7.8 2.4l-6.7 2.2-6.3-2.1c-3.4-1.2-6.6-2.3-7.2-2.4-.5-.1-1.6-.6-2.2-1-.7-.5-1.7-.6-2.2-.2-.5.3-1.2.1-1.5-.4-.3-.5-1.7-1.2-3-1.5-1.4-.3-3.8-1.1-5.3-1.8-1.5-.6-3.2-1.2-3.8-1.2-2.1-.3-9.1-2.6-10.4-3.5-1.1-.7-.3-1.3 3-2.2 2.4-.7 4.9-1.6 5.4-1.9.9-.7 5.8-2.2 8-2.5.6-.1 1.9-.6 3-1.1 4.2-1.8 21.1-7.3 22.5-7.3.8-.1 10.2 2.8 20.9 6.4zm-45.4 22.7c2.2.6 4.3 1.1 4.8 1 .4-.1.7.3.7.9 0 .6.6.9 1.4.6.7-.3 1.7-.2 2.2.2.5.4 4.2 1.8 8.2 3.1l7.4 2.4 10.1-3.4c5.6-1.9 10.6-3.6 11.2-3.9.5-.3 1.6-.6 2.5-.8.8-.1 2.8-.5 4.4-.9 2.6-.6 2.7-.5 1.7 1.5-.7 1.2-.8 2.1-.2 2.1.6 0 .6 1.1.1 3-.5 1.6-.5 3.2-.1 3.4.4.3.6 2.2.4 4.3-.2 2.1-.3 4.9-.2 6.3.2 4.4 0 8.5-.4 10.5-.2 1.1 0 2.6.6 3.2.6.9.5 1.3-.4 1.4-1.5.1-1.4.2-8.4-1.7-15.4-4-36-3.4-47.3 1.3-2.8 1.2-3.3 1.2-3.8-.2-.4-.9-.4-1.8-.1-2.1.3-.4.2-1.7-.3-3-.6-1.4-.6-2.4 0-2.4.5 0 .5-1.2 0-2.9-.4-1.6-.6-3.2-.3-3.4.5-.5.8-14.4.3-16.2-.5-1.9 0-5.5.8-5.5.4 0 2.5.5 4.7 1.2zm84.1 18.5c1 4-3.8 5.6-6 2-.8-1.2-.5-2.1.8-3.6 2.2-2.4 4.4-1.7 5.2 1.6zm-63.5 36.4c.1 26.9.3 24.7-2.8 24.2-1.6-.2-3.4-.4-4-.4-.7.1-1.9.1-2.5.1-1.2.1-6.8-.6-12.3-1.4-2.2-.3-3.1-2.8-1.9-5.4.4-.9.8-1.9.9-2.2 1.3-4.8 5.5-14.3 6.8-15.1.5-.3.8-.9.8-1.3-.3-1.9 7.9-11.6 9.9-11.6.5 0 1-.4 1-.9 0-.9 3-2 3.8-1.5.2.1.3 7.1.3 15.5zm17-10c2.6 2.6 6.2 7.8 8.2 11.6 3.6 7 8 19.3 7.2 20.1-.2.2-1.6.4-3 .4s-2.5.3-2.5.7c0 .4-1.5.6-3.2.6-1.8 0-4.5.3-6 .7-1.9.4-2.8.3-2.8-.5s-.3-.8-.8-.2c-.4.6-1.6 1.1-2.7 1.1s-2.3-.5-2.7-1.1c-.4-.5-.8-9.6-.8-20.2v-19.1l2.2.6c1.3.3 4.4 2.7 6.9 5.3zm-34.4-3.4c-.9.2-1.5.8-1.2 1.3.3.4-1 3.1-2.9 5.9-3.2 4.7-8.6 17.1-10.1 23.4-.4 1.5-1.3 2.7-1.9 2.7-2.1 0-11.9-3-16.3-5.1-2.4-1-4.7-1.9-5.3-1.9-2.2 0-.7-2.5 4.3-7.3 2.8-2.7 7-6.1 9.2-7.6 2.2-1.4 4.2-2.9 4.5-3.2.3-.3 3.2-1.8 6.5-3.3 3.3-1.5 7.4-3.3 9-4.1 1.7-.8 3.7-1.3 4.5-1.3 1 0 .9.2-.3.5zm55.3 4.4c10.2 4.9 26 17.2 26 20.3 0 1.9-18.6 9-21.8 8.4-1.4-.3-7-13.7-7.4-17.6-.1-.6-.5-1.2-1-1.2-.4 0-.8-.5-.8-1.1 0-.6-1.8-3.8-4-7.2l-4-6 3.2.7c1.8.4 6.2 2 9.8 3.7zm-92.4 30.3c4.1 2 8.9 3.7 14.7 5.2.4.1.9.3 1.2.4.6.3 2.1.7 3.4.9.8.1.8 2.3-.3 7.6-.4 1.6-.9 7.3-1.2 12.5-.4 5.2-.8 9.7-1 9.9-.7.7-32.9.7-35 0-2.1-.8-2.3-1.8-1.1-7.9.5-2.3 2-9.9 2.2-11 .1-.3.9-2.3 1.9-4.5 1-2.2 1.9-4.5 2-5 .4-2.4 5.8-10.5 7-10.5.7 0 3.5 1.1 6.2 2.4zm125.4-1c0 .8.4 1.6.8 1.8.5.1 2.1 3 3.6 6.2 4.3 9 6.7 18.2 7 26l.1 3.9-18.2.1c-9.9.1-17.9-.2-17.6-.7.2-.4 0-.7-.4-.7-.5 0-1-2.4-1-5.3-.1-2.8-.5-7.7-.9-10.7-.4-3-.7-6.3-.8-7.3 0-.9-.3-1.7-.7-1.7-.4 0-.5-.9-.2-1.9.4-1.4 2.5-2.6 7.5-4.1 3.9-1.2 9.4-3.2 12.2-4.5 5.8-2.8 8.6-3.1 8.6-1.1zm-92.1 10.3c.8.1 5.3.5 10 .8 12.7 1 11.6-.3 11.3 13.2-.1 6.5-.3 12.2-.4 12.8-.2 1.2-28.7 1.4-28.9.2-.1-.4-.2-1.3-.3-2-.1-.6.3-1.8.8-2.6.9-1.2.8-1.3-.3-.7-1 .6-1.2.4-.7-1 .3-1.1.8-4.2 1.1-6.9 1.2-12.7 2.4-16.3 4.9-14.8.6.4 1.7.8 2.5 1zm55.2-.3c.5-.3.9-.2 1 .3 0 .4.2 1.7.4 2.8 1.3 8.9 1.6 11.7 2 16.8.2 3.2.2 6.4-.1 7-.5 1.3-22 1.7-24.1.4-.6-.4-1.4-.3-1.8.3-1 1.6-2.1 1.2-3.1-1.3-1.2-2.9-.2-24.1 1.1-24.4.6 0 5-.4 9.9-.8 4.8-.3 9.8-1 11-1.4 1.1-.5 2.3-.5 2.4 0 .2.5.8.7 1.3.3zm-71.6 36.9c.2.7.6 5.2 1 10.2.6 8.8 1 12.7 1.5 13.2.1.2.2 1.5.3 3 .1 2.3-.4 2.8-3.3 3.5-1.9.5-4.2 1.2-5 1.5-1.7.7-2.9 1.1-4.7 1.4-.5.1-3.7 1.4-7.3 3-6.1 2.6-8.7 2.9-7.5.8.4-.5.2-.9-.4-.9-.8 0-6-9.6-6.6-12 0-.3-.8-2.8-1.7-5.5-1.5-4.6-2.9-12-3.2-17.2-.2-2.1 0-2.1 18.2-2.2 13.4 0 18.4.3 18.7 1.2zm37.7 1.6c.2 1.6.1 3.9-.4 5-.4 1.2-.4 2 0 1.7 1-.6.6 10-.4 11.6-.5.7-.3.8.6.3.9-.6 1-.2.5 1.6-.4 1.3-.9 2.5-1 2.7-.1.1-3.3.5-7.1.7-3.8.3-8.7.8-10.9 1.1-4.4.7-7.5.8-8.2.1-.2-.3-.5-2-.7-3.8-.2-1.9-.7-5.5-1.1-8-.3-2.6-.8-7.1-.9-10.1l-.2-5.5 14.7-.1 14.7-.1.4 2.8zm37.2 3.1c-.2 9.7-.8 15.1-1.6 15.6-.5.3-.6.9-.3 1.4.7 1.2-1.3 6.2-2.3 5.6-.9-.6-13-1.8-19.2-2-2.5 0-4.8-.6-5.2-1.1-.9-1.2-1.1-23.9-.2-24.8.3-.3 7-.5 14.8-.4l14.1.2-.1 5.5zm45-2c-.3 7.2-4.4 23.5-6.3 25-.3.3-1.6 2.6-2.9 5.2-2.2 4.5-5.3 7-6 4.9-.2-.6-.7-1.1-1.2-1.1-.4 0-2.5-.8-4.6-1.7-2.2-.9-4.1-1.7-4.4-1.8-.3 0-1-.4-1.7-.8-.6-.4-2.3-.8-3.7-.9-1.4-.1-2.6-.6-2.6-1.1 0-.4-.3-.6-.7-.4-.5.3-1.9.1-3.2-.4-2.1-.8-2.3-1.4-1.8-4.7.7-4.2 1.8-14.6 2.2-20.1.1-2 .3-4.1.4-4.8.1-.9 4.8-1.2 18.4-1l18.2.2-.1 3.5zm59.1 2.6c1.6 1 3.7 2.6 4.6 3.5 1.9 1.9 6.3 12.9 5.1 12.9-.4 0-.6 5.7-.4 12.6.3 11.9.2 12.9-2.2 17.8-2.6 5.2-5.8 8.2-9.9 9.3-3.3 1-10.9.9-13.2-.1-1.1-.5-2.2-1-2.5-1-1-.2-5.4-5-7.4-8.1-1.7-2.5-2-5-2.1-17.5-.1-8 .3-16.1.8-18 1.2-4.8 5.1-9.6 9.5-11.9 4.7-2.5 13.5-2.2 17.7.5zM179 216.5c6.5.4 15.2 1.4 15.7 1.9s-3.6 12.9-5.8 17.3c-4 8.5-8.1 14.1-13.3 18.1-4.3 3.3-5.9 2.9-5.4-1.3.2-1.9.2-3.5-.2-3.5-.3 0-.4-7.7-.2-17 .2-10.7.7-16.8 1.3-16.5.5.4 4.1.8 7.9 1zm-17 2.5c-.5 1.7-.6 3-.2 3 .6 0 .7 17.1.3 32.3-.1 2.9-3.9 1.2-8.9-3.9-4.3-4.3-13.6-20.6-12.5-21.8.3-.3.1-1.1-.5-1.8-.5-.7-1.4-3-2-5l-1-3.7 6.2-.8c3.3-.4 9.1-.9 12.8-1l6.6-.3-.8 3zm-32.2 2.2c.5.7 1.2 2.7 1.5 4.4.3 1.7 1 4 1.6 5.1.5 1.1.7 2.3.4 2.7-.3.3-.1.6.5.6.7 0 1.2.6 1.2 1.4 0 1.4 5.5 12.2 7.5 14.6 2.9 3.6 2.9 4.3 0 3.6-1.6-.4-4.7-1.6-6.9-2.7-2.2-1-4.4-1.9-4.8-1.9-.5 0-1.4-.5-2.1-1-.7-.6-3.9-2.8-7.2-5-5.7-3.6-15.5-12.6-15.5-14.1 0-1.2 12.5-6.5 18-7.5 1.3-.3 2.7-.7 2.9-1 .8-.7 1.8-.4 2.9.8zm85.5 2.4c3.7 1.2 7.9 2.9 9.2 3.8l2.4 1.6-5 5c-5.5 5.4-13.7 11.4-20.6 14.9-5 2.5-13.3 5.4-13.9 4.8-.2-.2.7-1.6 2-3.2 1.3-1.5 3.4-5 4.7-7.9 1.3-2.8 2.6-5.3 2.9-5.6.3-.3 1.6-3.9 3-8 1.3-4.1 2.5-7.8 2.7-8.3.5-.9 3.5-.2 12.6 2.9z"/><path d="M290.9 197.2c-.5 1.2-.5 9.8 0 10.4.3.5 2.1.9 3.9 1 3.3.1 3.4-.1 3.4-5.6 0-5.9-.1-6-3.7-6-1.9 0-3.5.1-3.6.2zM227.4 249.9c-.5.3-.9 2.2-.9 4.1 0 3.3.2 3.5 3.5 3.5s3.5-.2 3.8-3.8c.2-2.5-.1-3.7-1-3.8-.7 0-2-.2-2.9-.4-.9-.1-2 0-2.5.4zM243.4 249.8c-1.6.2-2.1 1-2.1 3.7 0 1.9.3 3.5.6 3.6.3.1 2.1.2 3.9.4 3.1.3 3.2.1 3.2-3.5 0-4-1.3-4.9-5.6-4.2zM257.8 250.1c-1.3.7-1.6 3.1-.9 7 .1.3 1.6.5 3.5.5 3-.1 3.5-.5 3.8-2.8.3-1.5.2-3.1-.1-3.6-.9-1.4-4.7-2-6.3-1.1zM289.9 273.9c-.9.3-1.5 1.5-1.3 2.6.3 2.2 1.3 7.7 2.1 11.5.5 2.4.5 19.2 0 27.5-.1 3 .2 4 1.5 4.3 1.8.3 3-2.3 3.4-7.3.1-1.7.2-3.4.3-3.9.1-.4 2.5 1.7 5.4 4.8 5.2 5.6 9.4 7.7 10.8 5.4.5-.7-1.4-3.3-4.6-6.5-8.5-8.3-8.5-8.4-2.2-15.1 3-3.1 5.2-6.3 5-7-.9-2.5-4.1-1.1-8.7 4-2.5 2.8-4.8 4.9-5 4.7-.2-.2-.6-4.1-.9-8.7-.3-4.5-1-8.8-1.4-9.5-.4-.6-.6-2-.5-3 .2-.9-.2-1.7-.8-1.7-.6 0-.9-.4-.5-.9.8-1.3-.7-2-2.6-1.2zM100.4 276.3c-.5 1.2-.9 3-1 3.9-.1 1-.3 2-.4 2.3-.4.7-.7 2.3-.9 3.8 0 .8-2.1 2.2-4.6 3.2-5 2.1-6.1 3.7-3.8 5.6 1.2 1.1 2 1 4.4-.3 2.8-1.7 2.9-1.6 3 .5.3 11.3.7 13.7 3.2 18.8 2.6 5.5 6.5 8.8 8.6 7.5 1.8-1.1 1.3-4-.9-5.4-1.1-.6-2.7-2.9-3.6-5-2-4.7-2.8-19.1-1.1-19.3.7-.1 2.3-.2 3.6-.3 2.4-.1 5.1-3 3.9-4.2-.4-.3-2.3-.6-4.2-.6-3.5 0-3.6 0-3-3.7.3-2 .7-4.3.9-5.1 1-3.5-3-5.1-4.1-1.7zM156.1 275.8c-.5.9-.9 2.1-1 2.7-.4 5.5-1.5 9.5-2.7 9.5-.8 0-1.4.5-1.4 1.2 0 .6-.3.9-.6.5-.8-.7-6.4 2-6.4 3.1.1 2.6 3.7 3.8 5.6 1.9.4-.4 1.3-.7 2.1-.7.9 0 1.3 1.6 1.3 5.9 0 8.1 2.8 16.2 7.1 20.3 4.4 4.3 7.7.3 3.5-4.1-3.3-3.4-5.6-10.6-5.7-17.8-.2-6.2 0-6.5 3.9-6.7 3.2-.1 6.9-3.1 5.1-4.1-.5-.4-2.6-.7-4.5-.7-3.4 0-3.5-.1-3-3.7.2-2 .5-4.1.6-4.6.8-3.4-2.4-5.6-3.9-2.7zM236.4 275.8c-2.1 1.3-3.3 18.1-2 28.2.3 2.5.8 6.7 1 9.4.6 5.6 1.5 7 4 6 1.8-.7 1.8-3.1 0-15.4-.7-4.5-.7-17.4 0-21.5.7-4.3-1-8.1-3-6.7zM247.6 280.6c-.7 1.9.2 3.7 1.5 2.9.5-.4.9 0 .9.7.1.8.6.6 1.5-.5.7-1.1 1.1-2.5.8-3.3-.7-1.9-3.9-1.8-4.7.2zM209.5 285.3c-1.7 1.3-1.8 1.9-.8 5.2 1 3.1.9 4.2-.5 6.3-1.1 1.8-1.6 4.8-1.7 10.9 0 7.7.2 8.6 2.4 10.4 2.9 2.4 3.6 2.4 6.2-.2 1.8-1.8 2-2.9 1.6-10.2-.3-4.5-.6-8.2-.7-8.2-.1 0-.3-1.3-.4-2.8-.3-3.4 2.8-5.9 7.9-6.2 2.5-.2 3.4.2 3.8 1.6.6 2.1 4.3 2.6 5 .6.6-1.9-1.3-5.4-3.7-6.4-3-1.4-5.3-1.1-12.5 1.8-1.3.5-2.4.8-2.5.7-.1-.2-.6-1.3-1.2-2.6-.8-2.1-1.1-2.1-2.9-.9zm2.2 24.4c.1 2.4.1 2.5-.7.8-1.1-2.6-1.2-3.5-.2-3.5.4 0 .8 1.2.9 2.7zM271.8 287.1c-2 1-5 3.5-6.6 5.5l-3.1 3.7-.7-3.7c-.7-3.8-2.3-5.2-4.8-4.3-1.1.5-1 1.7.6 7.4 1.1 3.7 2 8.2 2.2 9.9.1 1.6.5 3.4.8 4 .3.5.9 2.8 1.3 5.1.7 4.2 1.7 5.1 4.3 3.4.8-.5 1.1-1.8.7-3.7-2.3-10.6-1.3-15.7 4.1-20.9 2.4-2.4 4-3.1 5.7-2.8 4.9 1 5.7 12.6 1.6 22.6-.9 2.1-.9 3.1 0 4 2.3 2.3 5.4-2 7-9.8.1-.3.1-.6.2-.8 0-.1.2-2.6.4-5.6.6-11.5-5.8-18.1-13.7-14zM181.3 287.2c-3.8 1-11.8 8.2-10.8 9.7.3.6.3 1.1-.2 1.1-.4 0-.9 2.5-1.1 5.5-.1 3 .1 5.5.5 5.5.5 0 1.4 1.2 2 2.7.7 1.6 2.6 3.4 4.3 4.2 4 1.7 12.1 2.2 13.8.9.6-.6 1.2-.7 1.2-.4 0 1.3 5.4-2.6 7.7-5.4 1.2-1.5 2.3-3.8 2.5-5.1.2-1.3.7-3 1.1-3.7.5-.7.4-1.2-.2-1.2-.6 0-1-.3-1-.8.4-2.3-.4-4.4-2.7-7.2-4.5-5.3-10.9-7.5-17.1-5.8zm9.5 5.7c2.4 1.3 5.5 5.9 5.9 8.7.5 3.5-1.4 7.3-4.9 9.4-3.5 2.1-10.2 2.7-11.3 1-.3-.6-1.4-1-2.4-1-2.2 0-4.1-4-4.1-8.7 0-2.8.8-4.3 3.5-6.9 4.5-4.2 8.6-5 13.3-2.5zM114.2 287.6c-.6.3-.9 1.1-.5 1.7.4.7.8 4.6.8 8.7.2 13.5 4.9 20 14.2 19.6 3.4-.1 5-.9 7.8-3.6 1.9-1.9 3.5-4 3.5-4.7 0-.7.4-1.3.8-1.3 1 0 1.2-1.5 1.3-9.9.1-8.4-.7-11.1-3.1-11.1-1.8 0-2 .6-1.6 7.4.5 9.3 0 11.6-2.9 15-1.7 2-3.6 2.9-6.3 3.2-3.5.3-4.3 0-5.8-2.4-2.4-3.6-2.5-4.3-2.8-14.2-.2-7.6-.5-8.5-2.2-8.7-1-.1-2.5.1-3.2.3zM246.3 290.5c-2.4 6.4 1.5 28.5 5.1 28.5 2.5 0 3.5-2.1 2.3-4.9-.6-1.4-1.4-2.8-1.7-3.1-.6-.6-.9-3.9-1.3-14-.2-6.2-.5-7.5-2-7.8-.9-.2-2 .4-2.4 1.3zM191.3 342.4c.3.8.3 1.7-.1 2.1-.7.7-.8 1.2-1.1 4 0 .8-.7 1.5-1.5 1.5s-2.4.9-3.7 2.1c-2.5 2.1-2.2 2.2 2.9.8 1-.3 1.4 1.1 1.6 5.1.3 5.7 2.2 10.6 5.1 13 2.5 2.1 2.9.4.6-2.7-3.1-4.1-4.5-12.1-2.9-15.6.5-1 2-1.7 3.5-1.7 3 0 2.1-1.6-1.2-2.2-1.6-.3-1.9-1-1.7-4.1.2-2.4-.1-3.7-.8-3.7-.7 0-1 .6-.7 1.4zM271.9 341.7c-.1.4-.3 2.1-.5 3.6-.3 3.2-2 5.7-3.9 5.7-.7 0-1.8.7-2.5 1.5-1.5 1.8.1 2.1 3.1.5 1.6-.9 1.9-.7 2 1.2.2 9.4 1.9 14.7 5.2 16.7 3 1.9 3.1.5.3-3.2-1.4-1.8-2.3-3.7-1.9-4 .3-.4.2-.7-.3-.7s-.9-2.6-.9-5.8c0-4.3.4-5.7 1.5-5.8.8-.1 2.3-.2 3.3-.3 2.7-.2 1-2.1-1.9-2.1-2.3 0-2.4-.3-1.9-3.4.4-2 .2-3.6-.4-4-.6-.4-1.2-.4-1.2.1zM309.9 341.5c-.1.3-.3.9-.4 1.5-.1.5-.3 2.2-.4 3.6-.1 1.7-.8 2.8-2.1 3.1-1.1.3-2 .9-2 1.4 0 .5-1 .9-2.2.9-2 .1-2.1.2-.6 1.1 1.2.6 2.4.7 3.6 0 1.6-.9 1.9-.6 1.9 2.2.2 6.1.7 9.7 1.6 9.7.4 0 .6.4.3.8-.5.8 3.6 6.2 4.8 6.2 1.2 0 .6-2.1-1.5-4.9-2.2-3-4.1-16.4-2.3-16 .5.1 1.9.1 3.2 0 3.1-.1 2.8-2.1-.4-2.1-2.5 0-2.6-.2-2-4 .4-2.5.2-4-.4-4-.5 0-1.1.2-1.1.5zM203 345.5c0 .8.2 1.5.4 1.5s.6-.7 1-1.5c.3-.8.1-1.5-.4-1.5-.6 0-1 .7-1 1.5zM365 349.6c-6.2 4.3-4.7 8.3 3.9 10.5 5.4 1.4 7.2 3.6 4.6 5.5-2 1.5-5.6.9-7.1-1.1-1.4-1.9-2.4-1.9-2.4-.2 0 2.3 3.5 4.7 6.7 4.7 3.4 0 6.3-2.6 6.3-5.8 0-2.3-4.3-5.8-5.9-4.8-.5.4-1.2.2-1.6-.4-.3-.5-1.4-1-2.4-1-2.2 0-4.1-1.9-3.4-3.6.6-1.6 6.1-3.5 8.8-2.9 1.1.2 2.4.4 2.8.4.5.1.6.5.3 1-.6.9 2.3 2.5 3.1 1.8.7-.8-.9-3.6-2.5-4.2-5.3-2.2-7.8-2.2-11.2.1zM54.4 349c-6.3 2.6-8.6 12.4-4 17.3 1.3 1.4 3.7 2.9 5.2 3.3 3.6.9 10.8-1.5 11.2-3.9.3-1.6.1-1.6-3 .2-3.6 2.2-9 2.1-11.1-.1-2-2.1-3.7-6.7-2.7-7.3.5-.3.7-1.2.3-2-.3-.8 0-1.5.7-1.5.6 0 .9-.4.6-.9-.8-1.2 4.5-3.5 7.8-3.3 1.6 0 4.2 1 5.7 2.1 2 1.5 2.8 1.7 3.2.7 1-2.6-9.9-6.3-13.9-4.6zM105.5 349.2c-1.1.6-3.1 2.2-4.5 3.6s-1.9 2.2-1.1 1.7c1-.6 1.2-.4.6.5-.6 1-1.1.9-2.2-.5-.7-1.1-1.3-2.5-1.3-3.2 0-1.4-1.2-1.7-2.3-.6-.4.3-.3 1.1.2 1.7.5.6 1 1.4 1 1.8.1.5.1.9.2 1 0 .2.3 1.2.5 2.3.3 1.1.6 2.7.9 3.5.2.8.4 2.4.4 3.6.1 1.1.8 2.9 1.6 4 1.5 1.8 1.5 1.7 1.1-1.3-.2-1.7-.7-3.6-1-4.2-.4-.5-.1-1.3.5-1.6.5-.4.8-1.3.5-2-.2-.7.4-2.7 1.5-4.4 2.2-3.7 5.8-5.5 7.6-3.7 1.9 1.7 2.2 8.8.7 13.2-.7 2.1-1.1 4.1-.8 4.4.8.7 3.4-3.1 2.8-4.1-.3-.5-.1-.9.3-.9.5 0 .8-1.7.8-3.8-.1-2 .3-4.3.8-5 .6-.8.5-1.2-.2-1.2-.6 0-1.1-.6-1.1-1.4 0-1.3-3.6-4.6-5-4.6-.3 0-1.4.6-2.5 1.2zM126.3 349.9c-1.7 1.1-3.4 2.9-3.8 4-.3 1.2-1.1 1.9-1.6 1.5-.5-.3-.7-1-.4-1.5.4-.5.1-.9-.4-.9-.6 0-1.1-.7-1.1-1.5s-.5-1.5-1.1-1.5c-.7 0-.9.9-.5 2.2.9 3.1 1.7 6.9 1.9 9 .1 1 .5 1.8 1 1.8s.7.6.4 1.2c-.6 1.8 1.1 6.1 2.2 5.4.5-.3.4-2.4-.1-4.8-1.2-5.3.7-10.8 4.7-13.4 2.5-1.6 2.7-1.6 4.3 0 1.8 1.8 2.2 8.5.8 14.3-1 4.5 1 4.3 2.3-.2.5-1.9.8-4.6.6-6-.1-1.4.1-2.8.6-3 .5-.4-1.2-5.5-2.5-7.1-1-1.3-4.8-1-7.3.5zM164.4 351.6c-2.4 2.5-3.2 4.2-3.2 7.3 0 2.2.4 4.3.9 4.6.5.4.7 1 .4 1.5-.7 1.2 5.8 5 8.5 5 3.6 0 9-2.2 9-3.7 0-1.7-1.1-1.6-3.5.1-2.7 1.8-8.3 1.3-10.7-1.1-3-3-3.3-8.7-.6-11.8 3.2-3.6 10.4-3.9 13.7-.4 1.1 1.2 2.1 1.6 2.5 1.1.6-1.1-3.8-5.1-5.8-5.3-7.5-.8-8.1-.6-11.2 2.7zM217.7 349.8c-1.5.9-3.3 3-4.2 4.7-.8 1.6-1.5 2.5-1.6 2-.3-3.2-.9-4.9-2.1-5.6-1.8-1.1-1.8-1-.3 4.8.8 2.9 1.6 6.8 1.9 8.9.4 2 .9 4.1 1.2 4.6 1.1 1.7 2.3-1.4 1.5-3.6-2.6-7.3 4.9-18.5 9.4-14 .8.9 1.3 2 1 2.5-.4.5-.2.9.4.9.6 0 .9.6.6 1.2-.2.7-.6 2.9-.9 4.8-.3 1.9-.8 4.6-1.2 5.9-.5 1.8-.4 2.3.7 1.9.8-.3 1.4-.9 1.5-1.4 0-.5.4-2.1.8-3.5 1.3-4.7 1.3-9.4-.1-12.2-.7-1.5-1.7-2.7-2.1-2.8-.4 0-1.4-.2-2.3-.4-.9-.1-2.8.4-4.2 1.3zM233.1 350.8c-3.9 3.9-4.1 8.3-.6 11.7 1.3 1.4 3.3 2.5 4.4 2.5 1.1 0 2.3.4 2.6 1 .3.5-.1 1-1 1-2.2 0-6.6 3-5.9 4.1.3.5.1.9-.5.9-1.3 0 1.8 7.6 3.2 7.8.7.1 2.6.4 4.4.6 3.7.6 7.9-2.2 9.4-6.3.9-2.2.7-2.9-1.6-4.9-1.5-1.2-3.1-2-3.6-1.7-1.7 1.1-.9-2.7 1.2-5.3 1.4-1.8 1.9-3.8 1.7-6.4-.2-2.8.3-4.2 1.7-5.3 1.9-1.4 1.9-1.4-.6-1.5-1.4 0-4.7-.3-7.2-.6-4.2-.6-4.9-.4-7.6 2.4zm9.9.6c3.9 4.8.9 12.1-4.6 11.2-1.6-.2-3.2-.5-3.6-.5-1.1-.1-3.7-6.1-2.7-6.1.5 0 .9-.6.9-1.4 0-3.6 7.6-6 10-3.2zm2.6 18.8c1.5.7 2 1.6 1.6 3.4-.9 4.6-9.2 6.6-11.9 2.8-2.1-2.9-1.5-4.9 2-6.6 3.2-1.5 4.4-1.5 8.3.4zM345 349.2c0 .7.4 1.9.9 2.7.6.9.4 2.3-.6 3.8-.8 1.2-1.3 2.9-1 3.7.3.8.3 1.6-.2 1.8-.4.2-.3 2.2.2 4.6.7 3.6 1.2 4.3 3 4 1.9-.3 4.2-4.9 3-6.2-.8-.8-1.2-10.2-.5-11.3.4-.6 2.2-1.4 4-1.8 2.4-.5 3.3-.3 3.8.9.8 2.2 2.4 2 2.4-.3 0-2.7-2.4-3.3-7.8-1.9-3.5.9-4.7.9-5 0-.5-1.6-2.2-1.5-2.2 0zm2.6 14.5c.2 3.1-.1 4.2-.7 3.2-1-1.6-1.2-9.6-.2-8.5.4.4.8 2.8.9 5.3zM74.4 352.4c-5.2 5.2-4.6 12.3 1.3 15.4 6.3 3.4 16.6-1.7 15.5-7.6-.2-.6.2-1.2.9-1.2.8 0 .9-.3 0-1.3-.6-.8-.8-1.6-.6-1.9.3-.3-1-1.9-3-3.7-5-4.4-9.5-4.3-14.1.3zm12.6 1.1c1.7 1.9 2.5 4.9 2.2 8.5-.1.9-1.5 2.3-3 3.2-2.9 1.7-9.2 2.2-9.2.6 0-.4-.6-.8-1.3-.8-.7 0-1.8-1.4-2.4-3-.6-1.7-.7-3-.2-3 .4 0 .6-.6.3-1.4-.8-2 5.6-6.6 8.9-6.4 1.5.1 3.6 1.1 4.7 2.3zM147.1 349.9c-1.3.3-3.8 2.3-5.4 4.3-2.5 3.1-2.8 4.2-2.3 7.2.4 2 1.1 3.6 1.7 3.6.6 0 .7.6.3 1.2-.4.7-.4 1 .1.6.4-.4 1.4-.1 2.2.7 1.7 1.8 7.2 1.9 10.8.3 2.6-1.1 3.3-3.2 1.5-4.3-.5-.3-1 .1-1 .9 0 1.8-5.7 3.1-8.9 2.1-1.2-.3-2.8-2-3.7-3.7-1.5-2.9-1.5-3 .8-2.3 1.3.4 3 .9 3.9 1.1.9.3 2.9-.1 4.5-.7 1.6-.7 3.3-1.3 3.8-1.3 1.7-.2 2.9-3.3 2.2-5.9-.8-3.2-5.9-5.1-10.5-3.8zm7.6 3.8c1.5 2.2 1.4 2.5-.3 3.7-1 .8-2.2 1.2-2.6 1-.5-.3-.8-.1-.8.4 0 1-2.4.9-5.7-.2-3.4-1.1-2.9-4 1.1-6.2 3.2-1.7 6.7-1.2 8.3 1.3zM281.8 355.2c-.5 10 4.2 15.6 11.1 13.2 4.2-1.5 6.7-6.2 6.5-12.5-.2-6.8-.2-6.9-1.2-6.9-.5 0-.9 3-.9 6.6-.1 6.1-.3 6.9-3.2 9.6-1.7 1.6-3.1 2.5-3.1 1.9 0-.5-.8-.7-1.8-.5-1.9.6-5.4-4.4-5.1-7.4.4-4.3-.2-10.2-1.1-10.2-.5 0-1 2.8-1.2 6.2zM322.3 351.9c-1.7 1.6-3 3.1-2.8 3.3.3.2.1 1.7-.4 3.4-1.7 6 4.3 11.2 11.4 10.1 3.3-.5 7.9-3.3 8.3-5 .1-.4.2-.8.3-1 0-.1.2-1.9.3-4 .3-3.2-.2-4.2-3.1-6.7-4.6-4-9.6-4.1-14-.1zm12.6 1.6c5.9 6.5.7 14.9-8.1 13-4-.9-5.7-3-5.8-7 0-6.8 9.5-10.9 13.9-6zM201.5 356.2c.2 2.9.6 6.2.9 7.3.2 1.1.5 2.7.5 3.6.1.9.8 2 1.7 2.3 1.3.5 1.5.2 1-1.6-.4-1.3-.8-2.8-.9-3.3-.2-.6-.5-1.5-.8-2-.2-.6-.4-3.4-.4-6.3.1-3.5-.3-5.2-1.1-5.2-.9 0-1.1 1.5-.9 5.2zM21 366.5c0 .8.7 1.5 1.5 1.5.9 0 1.2-.6.9-1.5-.4-.8-1-1.5-1.5-1.5s-.9.7-.9 1.5zM25 367.1c0 1.1.5 1.7 1 1.4.6-.3 1-1.3 1-2.1s-.4-1.4-1-1.4c-.5 0-1 .9-1 2.1zM28.7 366.4c-.7 1.8.1 2.6 1.8 1.9.8-.2 1.1-1.1.8-1.9-.7-1.8-1.9-1.8-2.6 0z"/></svg>